<svg id="er9qng0lzzng1" xmlns="http://www.w3.org/2000/svg" xmlns:xlink="http://www.w3.org/1999/xlink" viewBox="0 0 226.770000 226.770000" shape-rendering="geometricPrecision" text-rendering="geometricPrecision"><path id="er9qng0lzzng2" d="M182.180000,113.370000C183.473743,109.086274,184.360997,104.690181,184.830000,100.240000C184.840182,100.066816,184.840182,99.893184,184.830000,99.720000L184.830000,74.580000C184.832020,72.795778,183.883118,71.145679,182.340000,70.250000L115.890000,31.880000C114.342995,30.986836,112.437005,30.986836,110.890000,31.880000L44.430000,70.250000C42.883034,71.143141,41.930045,72.793717,41.930000,74.580000L41.930000,99.720000C41.919772,99.893182,41.919772,100.066818,41.930000,100.240000C42.399987,104.696586,43.287211,109.099226,44.580000,113.390000C43.309918,117.679420,42.446114,122.078796,42,126.530000C41.989772,126.703182,41.989772,126.876818,42,127.050000L42,152.190000C42.000045,153.976283,42.953034,155.626859,44.500000,156.520000L110.960000,194.890000C111.721683,195.325013,112.582857,195.555808,113.460000,195.560000C114.337695,195.559961,115.199916,195.328886,115.960000,194.890000L182.420000,156.520000C183.966966,155.626859,184.919955,153.976283,184.920000,152.190000L184.920000,127.050000C184.930182,126.876816,184.930182,126.703184,184.920000,126.530000C184.450997,122.079819,183.563743,117.683726,182.270000,113.400000L182.270000,113.400000ZM51.930000,77.470000L113.390000,42L174.840000,77.470000L174.840000,97C170.096827,89.167709,163.910784,82.306393,156.610000,76.780000C131.013230,57.514829,95.756770,57.514829,70.160000,76.780000C62.862987,82.310501,56.677648,89.171036,51.930000,97ZM112,138C112.335978,138.003129,112.671295,137.969597,113,137.900000L113.330000,137.900000C126.866795,137.883483,137.837963,126.916787,137.860000,113.380000C137.866991,109.972998,137.154803,106.602882,135.770000,103.490000C147.501957,109.026064,156.496987,119.070634,160.710000,131.340000C160.800259,131.593443,160.907158,131.840647,161.030000,132.080000C161.152842,132.319353,161.030000,132.080000,161.030000,132.080000C146.817786,149.163788,124.541653,157.323104,102.657289,153.460793C80.772925,149.598481,62.635611,134.306707,55.130000,113.390000C56.242455,110.258069,57.613863,107.224247,59.230000,104.320000C68.787619,124.841178,89.362286,137.972783,112,138ZM98.740000,113.340000C98.735955,107.462255,102.273510,102.161022,107.702677,99.908903C113.131845,97.656784,119.383096,98.897439,123.540721,103.052202C127.698345,107.206966,128.943304,113.457361,126.694924,118.888078C124.446543,124.318795,119.147746,127.859999,113.270000,127.860000C105.253766,127.848998,98.756521,121.356224,98.740000,113.340000ZM167.740000,122.170000C158.151776,101.801995,137.661989,88.804480,115.150000,88.810000C114.980146,88.800049,114.809854,88.800049,114.640000,88.810000L114.640000,88.810000C114.210000,88.810000,113.770000,88.810000,113.330000,88.810000C105.073945,88.789069,97.361175,92.922705,92.807121,99.809176C88.253068,106.695646,87.468700,115.411066,90.720000,123C79.525484,117.498644,70.900766,107.870218,66.660000,96.140000C66.475089,95.614775,66.197347,95.127032,65.840000,94.700000C80.058127,77.658030,102.308765,69.527468,124.164716,73.387681C146.020668,77.247894,164.139922,92.508613,171.660000,113.390000C170.581247,116.417991,169.260307,119.354155,167.710000,122.170000ZM174.880000,149.300000L113.420000,184.780000L51.940000,149.310000L51.940000,149.310000L51.940000,129.780000C56.687648,137.608964,62.872987,144.469499,70.170000,150C95.766770,169.265171,131.023230,169.265171,156.620000,150C163.920784,144.473607,170.106827,137.612291,174.850000,129.780000Z" transform="matrix(0.50000000000000 0 0 0.50000000000000 56.71249008178711 56.69252967834473)" fill="rgb(16,24,32)" stroke="none" stroke-width="1"/><path id="er9qng0lzzng3" d="M60.090000,73.210000L54.777250,73.210000L54.777250,52.727039L48.425049,54.696221L48.425049,50.376724L59.512527,46.403711L60.090000,46.403711ZM60.090000,73.210000L54.777250,73.210000L54.777250,52.727039L48.425049,54.696221L48.425049,50.376724L59.512527,46.403711L60.090000,46.403711Z" transform="matrix(1 0 0 1 15.08887800000000 -8.04740199999999)" fill="rgb(63,67,253)" stroke="none" stroke-width="1"/><path id="er9qng0lzzng4" d="M65.670000,61.590617Q65.670000,67.526372,63.201911,70.667016Q60.733821,73.807660,56.001260,73.820000Q51.324230,73.820000,48.849971,70.734888Q46.375711,67.649776,46.332519,61.892958L46.332519,56.654438Q46.332519,50.663151,48.800609,47.559528Q51.268698,44.455906,55.964238,44.474417Q60.641268,44.474417,63.115527,47.559528Q65.589787,50.644640,65.651489,56.389118ZM59.993394,55.802947Q59.993394,52.242728,59.018499,50.619959C58.394540,49.558903,57.230287,48.935111,56.001260,49.003361C54.806199,48.929422,53.668438,49.523242,53.045723,50.545917Q52.095508,52.088473,52.033806,55.377202L52.033806,62.337214Q52.033806,65.835731,52.984020,67.538712C53.587839,68.663847,54.795294,69.330362,56.069132,69.241694C57.303039,69.325221,58.474038,68.688024,59.074031,67.606585Q59.999565,65.971476,60.036586,62.608704ZM65.670000,61.590617Q65.670000,67.526372,63.201911,70.667016Q60.733821,73.807660,56.001260,73.820000Q51.324230,73.820000,48.849971,70.734888Q46.375711,67.649776,46.332519,61.892958L46.332519,56.654438Q46.332519,50.663151,48.800609,47.559528Q51.268698,44.455906,55.964238,44.474417Q60.641268,44.474417,63.115527,47.559528Q65.589787,50.644640,65.651489,56.389118ZM59.993394,55.802947Q59.993394,52.242728,59.018499,50.619959C58.394540,49.558903,57.230287,48.935111,56.001260,49.003361C54.806199,48.929422,53.668438,49.523242,53.045723,50.545917Q52.095508,52.088473,52.033806,55.377202L52.033806,62.337214Q52.033806,65.835731,52.984020,67.538712C53.587839,68.663847,54.795294,69.330362,56.069132,69.241694C57.303039,69.325221,58.474038,68.688024,59.074031,67.606585Q59.999565,65.971476,60.036586,62.608704Z" transform="matrix(1 0 0 1 133.90050935000002 15.93324179500003)" fill="rgb(63,67,253)" stroke="none" stroke-width="1"/><path id="er9qng0lzzng5" d="M65.670000,54Q65.670000,63.620000,61.670000,68.710000Q57.670000,73.800000,50,73.820000Q42.420000,73.820000,38.410000,68.820000Q34.400000,63.820000,34.330000,54.490000L34.330000,46Q34.330000,36.290000,38.330000,31.260000Q42.330000,26.230000,49.940000,26.260000Q57.520000,26.260000,61.530000,31.260000Q65.540000,36.260000,65.640000,45.570000ZM56.470000,44.620000Q56.470000,38.850000,54.890000,36.220000C53.878757,34.500359,51.991869,33.489388,50,33.600000C48.063181,33.480168,46.219227,34.442565,45.210000,36.100000Q43.670000,38.600000,43.570000,43.930000L43.570000,55.210000Q43.570000,60.880000,45.110000,63.640000C46.088602,65.463491,48.045507,66.543703,50.110000,66.400000C52.109776,66.535371,54.007600,65.502675,54.980000,63.750000Q56.480000,61.100000,56.540000,55.650000ZM65.670000,54Q65.670000,63.620000,61.670000,68.710000Q57.670000,73.800000,50,73.820000Q42.420000,73.820000,38.410000,68.820000Q34.400000,63.820000,34.330000,54.490000L34.330000,46Q34.330000,36.290000,38.330000,31.260000Q42.330000,26.230000,49.940000,26.260000Q57.520000,26.260000,61.530000,31.260000Q65.540000,36.260000,65.640000,45.570000ZM56.470000,44.620000Q56.470000,38.850000,54.890000,36.220000C53.878757,34.500359,51.991869,33.489388,50,33.600000C48.063181,33.480168,46.219227,34.442565,45.210000,36.100000Q43.670000,38.600000,43.570000,43.930000L43.570000,55.210000Q43.570000,60.880000,45.110000,63.640000C46.088602,65.463491,48.045507,66.543703,50.110000,66.400000C52.109776,66.535371,54.007600,65.502675,54.980000,63.750000Q56.480000,61.100000,56.540000,55.650000Z" transform="matrix(0.50000000000000 0 0 0.50000000000000 -0.27703699999999 47.27763765749997)" fill="rgb(63,67,253)" stroke="none" stroke-width="1"/><path id="er9qng0lzzng6" d="M50.281287,63.732109Q50.281287,68.628452,48.245385,71.219136Q46.209484,73.809820,42.305643,73.820000Q38.447610,73.820000,36.406619,71.275123Q34.365628,68.730247,34.330000,63.981507L34.330000,59.660306Q34.330000,54.718156,36.365901,52.158010Q38.401803,49.597864,42.275105,49.613133Q46.133138,49.613133,48.174129,52.158010Q50.215120,54.702887,50.266018,59.441447ZM45.598714,58.957920Q45.598714,56.021133,44.794533,54.682528C44.279835,53.807273,43.319455,53.292714,42.305643,53.349012C41.319850,53.288021,40.381323,53.777857,39.867652,54.621451Q39.083830,55.893889,39.032932,58.606727L39.032932,64.347969Q39.032932,67.233859,39.816754,68.638631C40.314838,69.566743,41.310855,70.116544,42.361631,70.043403C43.379467,70.112304,44.345413,69.586687,44.840341,68.694618Q45.603804,67.345834,45.634342,64.571918ZM50.281287,63.732109Q50.281287,68.628452,48.245385,71.219136Q46.209484,73.809820,42.305643,73.820000Q38.447610,73.820000,36.406619,71.275123Q34.365628,68.730247,34.330000,63.981507L34.330000,59.660306Q34.330000,54.718156,36.365901,52.158010Q38.401803,49.597864,42.275105,49.613133Q46.133138,49.613133,48.174129,52.158010Q50.215120,54.702887,50.266018,59.441447ZM45.598714,58.957920Q45.598714,56.021133,44.794533,54.682528C44.279835,53.807273,43.319455,53.292714,42.305643,53.349012C41.319850,53.288021,40.381323,53.777857,39.867652,54.621451Q39.083830,55.893889,39.032932,58.606727L39.032932,64.347969Q39.032932,67.233859,39.816754,68.638631C40.314838,69.566743,41.310855,70.116544,42.361631,70.043403C43.379467,70.112304,44.345413,69.586687,44.840341,68.694618Q45.603804,67.345834,45.634342,64.571918Z" transform="matrix(0.99967069684824 0 0 0.99967069684824 -9.73374899829763 80.67285312502926)" fill="rgb(63,67,253)" stroke="none" stroke-width="1"/><path id="er9qng0lzzng7" d="M60.090000,73.210000L54.847396,73.210000L54.847396,52.997484L48.579066,54.940666L48.579066,50.678202L59.520152,46.757646L60.090000,46.757646ZM60.090000,73.210000L54.847396,73.210000L54.847396,52.997484L48.579066,54.940666L48.579066,50.678202L59.520152,46.757646L60.090000,46.757646Z" transform="matrix(0.99967069684824 0 0 0.99967069684824 44.20136004297228 127.03816971193910)" fill="rgb(63,67,253)" stroke="none" stroke-width="1"/><path id="er9qng0lzzng8" d="M60.090000,73.210000L56.176554,73.210000L56.176554,58.121965L51.497434,59.572492L51.497434,56.390690L59.664625,53.464114L60.090000,53.464114ZM60.090000,73.210000L56.176554,73.210000L56.176554,58.121965L51.497434,59.572492L51.497434,56.390690L59.664625,53.464114L60.090000,53.464114Z" transform="matrix(0.99967069684824 0 0 0.99967069684824 81.03419186455660 -21.43408117241181)" fill="rgb(63,67,253)" stroke="none" stroke-width="1"/><path id="er9qng0lzzng9" d="M65.670000,64.122663Q65.670000,68.829443,63.417019,71.319829Q61.164038,73.810215,56.843947,73.820000Q52.574548,73.820000,50.315935,71.373649Q48.057321,68.927297,48.017894,64.362406L48.017894,60.208501Q48.017894,55.457687,50.270875,52.996657Q52.523856,50.535628,56.810152,50.550306Q61.079551,50.550306,63.338165,52.996657Q65.596778,55.443008,65.653103,59.998115ZM60.488144,59.533308Q60.488144,56.710218,59.598216,55.423438C59.028639,54.582069,57.965858,54.087431,56.843947,54.141550C55.753043,54.082919,54.714445,54.553792,54.146002,55.364725Q53.278605,56.587901,53.222280,59.195711L53.222280,64.714680Q53.222280,67.488843,54.089678,68.839229C54.640871,69.731409,55.743088,70.259924,56.905904,70.189615C58.032268,70.255848,59.101209,69.750580,59.648908,68.893048Q60.493776,67.596482,60.527571,64.929959ZM65.670000,64.122663Q65.670000,68.829443,63.417019,71.319829Q61.164038,73.810215,56.843947,73.820000Q52.574548,73.820000,50.315935,71.373649Q48.057321,68.927297,48.017894,64.362406L48.017894,60.208501Q48.017894,55.457687,50.270875,52.996657Q52.523856,50.535628,56.810152,50.550306Q61.079551,50.550306,63.338165,52.996657Q65.596778,55.443008,65.653103,59.998115ZM60.488144,59.533308Q60.488144,56.710218,59.598216,55.423438C59.028639,54.582069,57.965858,54.087431,56.843947,54.141550C55.753043,54.082919,54.714445,54.553792,54.146002,55.364725Q53.278605,56.587901,53.222280,59.195711L53.222280,64.714680Q53.222280,67.488843,54.089678,68.839229C54.640871,69.731409,55.743088,70.259924,56.905904,70.189615C58.032268,70.255848,59.101209,69.750580,59.648908,68.893048Q60.493776,67.596482,60.527571,64.929959Z" transform="matrix(1 0 0 1 123.38908163999980 85.97348190499999)" fill="rgb(63,67,253)" stroke="none" stroke-width="1"/><rect id="er9qng0lzzng10" width="46" height="46" rx="7" ry="7.590000" transform="matrix(0.09938063636174 0.05737743715569 -0.06617439435469 0.11461741318242 54.70610768383766 155.83760034222297)" fill="none" fill-rule="evenodd" stroke="rgb(63,67,253)" stroke-width="7" stroke-linejoin="round" stroke-dashoffset="184"/><path id="er9qng0lzzng11" d="M50,28.420000C23.110000,3.600000,-10.830000,46.930000,50,78.940000C110.830000,46.930000,76.890000,3.600000,50,28.420000Z" transform="matrix(0.10859574355302 -0.06269778177318 0.06269778177318 0.10859574355302 147.49385859292423 70.00256599261468)" fill="none" stroke="rgb(244,40,74)" stroke-width="7" stroke-linecap="square" stroke-linejoin="bevel"/><path id="er9qng0lzzng12" d="M50,28.420000C23.110000,3.600000,-10.830000,46.930000,50,78.940000C110.830000,46.930000,76.890000,3.600000,50,28.420000Z" transform="matrix(0.12539556354636 0 0 0.12539556354636 29.99452251268175 39.24538169115023)" fill="none" stroke="rgb(244,40,74)" stroke-width="7" stroke-linecap="square" stroke-linejoin="bevel"/><rect id="er9qng0lzzng13" width="46" height="46" rx="6.460000" ry="7" transform="matrix(0.09677217372843 -0.06167517790891 0.07113105337496 0.11160902794402 195.70873512662189 181.89787964919250)" fill="none" fill-rule="evenodd" stroke="rgb(63,67,253)" stroke-width="7" stroke-linejoin="round" stroke-dashoffset="184"/><circle id="er9qng0lzzng14" r="27.500000" transform="matrix(0.10697115762143 0 0 0.10697115762143 63.51392687999960 87.12934448999978)" fill="rgb(244,40,74)" stroke="none" stroke-width="1"/><circle id="er9qng0lzzng15" r="27.500000" transform="matrix(0.10697115762143 0 0 0.10697115762143 139.75315389999975 176.71776949999966)" fill="rgb(244,40,74)" stroke="none" stroke-width="1"/><script><![CDATA[!function(t,n){"object"==typeof exports&&"undefined"!=typeof module?module.exports=n():"function"==typeof define&&define.amd?define(n):(t=t||self).__SVGATOR_PLAYER__=n()}(this,(function(){"use strict";function t(n){return(t="function"==typeof Symbol&&"symbol"==typeof Symbol.iterator?function(t){return typeof t}:function(t){return t&&"function"==typeof Symbol&&t.constructor===Symbol&&t!==Symbol.prototype?"symbol":typeof t})(n)}function n(t,n){if(!(t instanceof n))throw new TypeError("Cannot call a class as a function")}function e(t,n){for(var e=0;e<n.length;e++){var r=n[e];r.enumerable=r.enumerable||!1,r.configurable=!0,"value"in r&&(r.writable=!0),Object.defineProperty(t,r.key,r)}}function r(t,n,r){return n&&e(t.prototype,n),r&&e(t,r),t}function i(t){return(i=Object.setPrototypeOf?Object.getPrototypeOf:function(t){return t.__proto__||Object.getPrototypeOf(t)})(t)}function u(t,n){return(u=Object.setPrototypeOf||function(t,n){return t.__proto__=n,t})(t,n)}function o(t,n){return!n||"object"!=typeof n&&"function"!=typeof n?function(t){if(void 0===t)throw new ReferenceError("this hasn't been initialised - super() hasn't been called");return t}(t):n}function a(t){var n=function(){if("undefined"==typeof Reflect||!Reflect.construct)return!1;if(Reflect.construct.sham)return!1;if("function"==typeof Proxy)return!0;try{return Date.prototype.toString.call(Reflect.construct(Date,[],(function(){}))),!0}catch(t){return!1}}();return function(){var e,r=i(t);if(n){var u=i(this).constructor;e=Reflect.construct(r,arguments,u)}else e=r.apply(this,arguments);return o(this,e)}}function l(t,n,e){return(l="undefined"!=typeof Reflect&&Reflect.get?Reflect.get:function(t,n,e){var r=function(t,n){for(;!Object.prototype.hasOwnProperty.call(t,n)&&null!==(t=i(t)););return t}(t,n);if(r){var u=Object.getOwnPropertyDescriptor(r,n);return u.get?u.get.call(e):u.value}})(t,n,e||t)}var f=Math.abs;function s(t){return t}function c(t,n,e){var r=1-e;return 3*e*r*(t*r+n*e)+e*e*e}function h(){var t=arguments.length>0&&void 0!==arguments[0]?arguments[0]:0,n=arguments.length>1&&void 0!==arguments[1]?arguments[1]:0,e=arguments.length>2&&void 0!==arguments[2]?arguments[2]:1,r=arguments.length>3&&void 0!==arguments[3]?arguments[3]:1;return t<0||t>1||e<0||e>1?null:f(t-n)<=1e-5&&f(e-r)<=1e-5?s:function(i){if(i<=0)return t>0?i*n/t:0===n&&e>0?i*r/e:0;if(i>=1)return e<1?1+(i-1)*(r-1)/(e-1):1===e&&t<1?1+(i-1)*(n-1)/(t-1):1;for(var u,o=0,a=1;o<a;){var l=c(t,e,u=(o+a)/2);if(f(i-l)<1e-5)break;l<i?o=u:a=u}return c(n,r,u)}}function v(){return 1}function d(t){return 1===t?1:0}function y(){var t=arguments.length>0&&void 0!==arguments[0]?arguments[0]:1,n=arguments.length>1&&void 0!==arguments[1]?arguments[1]:0;if(1===t){if(0===n)return d;if(1===n)return v}var e=1/t;return function(t){return t>=1?1:(t+=n*e)-t%e}}function g(t){var n=arguments.length>1&&void 0!==arguments[1]?arguments[1]:2;if(Number.isInteger(t))return t;var e=Math.pow(10,n);return Math.round(t*e)/e}var p=Math.PI/180;function m(t,n,e){return t>=.5?e:n}function b(t,n,e){return 0===t||n===e?n:t*(e-n)+n}function w(t,n,e){var r=b(t,n,e);return r<=0?0:r}function x(t,n,e){return 0===t?n:1===t?e:{x:b(t,n.x,e.x),y:b(t,n.y,e.y)}}function k(t,n,e){return 0===t?n:1===t?e:{x:w(t,n.x,e.x),y:w(t,n.y,e.y)}}function A(t,n,e){var r=function(t,n,e){return Math.round(b(t,n,e))}(t,n,e);return r<=0?0:r>=255?255:r}function _(t,n,e){return 0===t?n:1===t?e:{r:A(t,n.r,e.r),g:A(t,n.g,e.g),b:A(t,n.b,e.b),a:b(t,null==n.a?1:n.a,null==e.a?1:e.a)}}function S(t,n,e){if(0===t)return n;if(1===t)return e;var r=n.length;if(r!==e.length)return m(t,n,e);for(var i=[],u=0;u<r;u++)i.push(_(t,n[u],e[u]));return i}function M(t,n,e){var r=n.length;if(r!==e.length)return m(t,n,e);for(var i=new Array(r),u=0;u<r;u++)i[u]=b(t,n[u],e[u]);return i}function O(t,n){for(var e=[],r=0;r<t;r++)e.push(n);return e}function E(t,n){if(--n<=0)return t;var e=(t=Object.assign([],t)).length;do{for(var r=0;r<e;r++)t.push(t[r])}while(--n>0);return t}var B,I=function(){function t(e){n(this,t),this.list=e,this.length=e.length}return r(t,[{key:"setAttribute",value:function(t,n){for(var e=this.list,r=0;r<this.length;r++)e[r].setAttribute(t,n)}},{key:"removeAttribute",value:function(t){for(var n=this.list,e=0;e<this.length;e++)n[e].removeAttribute(t)}},{key:"style",value:function(t,n){for(var e=this.list,r=0;r<this.length;r++)e[r].style[t]=n}}]),t}(),j=/-./g,P=function(t,n){return n.toUpperCase()};function F(t){return"function"==typeof t?t:m}function R(t){return t?"function"==typeof t?t:Array.isArray(t)?function(t){var n=arguments.length>1&&void 0!==arguments[1]?arguments[1]:s;if(!Array.isArray(t))return n;switch(t.length){case 1:return y(t[0])||n;case 2:return y(t[0],t[1])||n;case 4:return h(t[0],t[1],t[2],t[3])||n}return n}(t,null):function(t,n){var e=arguments.length>2&&void 0!==arguments[2]?arguments[2]:s;switch(t){case"linear":return s;case"steps":return y(n.steps||1,n.jump||0)||e;case"bezier":case"cubic-bezier":return h(n.x1||0,n.y1||0,n.x2||0,n.y2||0)||e}return e}(t.type,t.value,null):null}function T(t,n,e){var r=arguments.length>3&&void 0!==arguments[3]&&arguments[3],i=n.length-1;if(t<=n[0].t)return r?[0,0,n[0].v]:n[0].v;if(t>=n[i].t)return r?[i,1,n[i].v]:n[i].v;var u,o=n[0],a=null;for(u=1;u<=i;u++){if(!(t>n[u].t)){a=n[u];break}o=n[u]}return null==a?r?[i,1,n[i].v]:n[i].v:o.t===a.t?r?[u,1,a.v]:a.v:(t=(t-o.t)/(a.t-o.t),o.e&&(t=o.e(t)),r?[u,t,e(t,o.v,a.v)]:e(t,o.v,a.v))}function q(t,n){var e=arguments.length>2&&void 0!==arguments[2]?arguments[2]:null;return t&&t.length?"function"!=typeof n?null:("function"!=typeof e&&(e=null),function(r){var i=T(r,t,n);return null!=i&&e&&(i=e(i)),i}):null}function C(t,n){return t.t-n.t}function V(n,e,r,i,u){var o,a="@"===r[0],l="#"===r[0],f=B[r],s=m;switch(a?(o=r.substr(1),r=o.replace(j,P)):l&&(r=r.substr(1)),t(f)){case"function":if(s=f(i,u,T,R,r,a,e,n),l)return s;break;case"string":s=q(i,F(f));break;case"object":if((s=q(i,F(f.i),f.f))&&"function"==typeof f.u)return f.u(e,s,r,a,n)}return s?function(t,n,e){var r=arguments.length>3&&void 0!==arguments[3]&&arguments[3];if(r)return t instanceof I?function(r){return t.style(n,e(r))}:function(r){return t.style[n]=e(r)};if(Array.isArray(n)){var i=n.length;return function(r){var u=e(r);if(null==u)for(var o=0;o<i;o++)t[o].removeAttribute(n);else for(var a=0;a<i;a++)t[a].setAttribute(n,u)}}return function(r){var i=e(r);null==i?t.removeAttribute(n):t.setAttribute(n,i)}}(e,r,s,a):null}function N(n,e,r,i){if(!i||"object"!==t(i))return null;var u=null,o=null;return Array.isArray(i)?o=function(t){if(!t||!t.length)return null;for(var n=0;n<t.length;n++)t[n].e&&(t[n].e=R(t[n].e));return t.sort(C)}(i):(o=i.keys,u=i.data||null),o?V(n,e,r,o,u):null}function z(t,n,e){if(!e)return null;var r=[];for(var i in e)if(e.hasOwnProperty(i)){var u=N(t,n,i,e[i]);u&&r.push(u)}return r.length?r:null}function D(t,n){if(!n.duration||n.duration<0)return null;var e=function(t,n){if(!n)return null;var e=[];if(Array.isArray(n))for(var r=n.length,i=0;i<r;i++){var u=n[i];if(2===u.length){var o=null;if("string"==typeof u[0])o=t.getElementById(u[0]);else if(Array.isArray(u[0])){o=[];for(var a=0;a<u[0].length;a++)if("string"==typeof u[0][a]){var l=t.getElementById(u[0][a]);l&&o.push(l)}o=o.length?1===o.length?o[0]:new I(o):null}if(o){var f=z(t,o,u[1]);f&&(e=e.concat(f))}}}else for(var s in n)if(n.hasOwnProperty(s)){var c=t.getElementById(s);if(c){var h=z(t,c,n[s]);h&&(e=e.concat(h))}}return e.length?e:null}(t,n.elements);return e?function(t,n){var e=arguments.length>2&&void 0!==arguments[2]?arguments[2]:1/0,r=arguments.length>3&&void 0!==arguments[3]?arguments[3]:1,i=arguments.length>4&&void 0!==arguments[4]&&arguments[4],u=arguments.length>5&&void 0!==arguments[5]?arguments[5]:1,o=t.length,a=r>0?n:0;i&&e%2==0&&(a=n-a);var l=null;return function(f,s){var c=f%n,h=1+(f-c)/n;s*=r,i&&h%2==0&&(s=-s);var v=!1;if(h>e)c=a,v=!0,-1===u&&(c=r>0?0:n);else if(s<0&&(c=n-c),c===l)return!1;l=c;for(var d=0;d<o;d++)t[d](c);return v}}(e,n.duration,n.iterations||1/0,n.direction||1,!!n.alternate,n.fill||1):null}function L(t,n){if(B=n,!t||!t.root||!Array.isArray(t.animations))return null;var e=window.document.getElementById(t.root);if(!e)return null;var r=t.animations.map((function(t){return D(e,t)})).filter((function(t){return!!t}));return r.length?{element:e,animations:r,animationSettings:t.animationSettings,options:t.options||void 0}:null}var U=function(){function t(e,r){var i=arguments.length>2&&void 0!==arguments[2]?arguments[2]:{};n(this,t),this._id=0,this._running=!1,this._rollingBack=!1,this._animations=e,this.duration=r.duration,this.alternate=r.alternate,this.fill=r.fill,this.iterations=r.iterations,this.direction=i.direction||1,this.speed=i.speed||1,this.fps=i.fps||100,this.offset=i.offset||0,this.rollbackStartOffset=0}return r(t,[{key:"_rollback",value:function(){var t=this,n=1/0,e=null;this.rollbackStartOffset=this.offset,this._rollingBack||(this._rollingBack=!0,this._running=!0);this._id=window.requestAnimationFrame((function r(i){if(t._rollingBack){null==e&&(e=i);var u=i-e,o=t.rollbackStartOffset-u,a=Math.round(o*t.speed);if(a>t.duration&&n!=1/0){var l=!!t.alternate&&a/t.duration%2>1,f=a%t.duration;a=(f+=l?t.duration:0)||t.duration}var s=t.fps?1e3/t.fps:0,c=Math.max(0,a);if(c<n-s){t.offset=c,n=c;for(var h=t._animations,v=h.length,d=0;d<v;d++)h[d](c,t.direction)}var y=!1;if(t.iterations>0&&-1===t.fill){var g=t.iterations*t.duration,p=g==a;a=p?0:a,t.offset=p?0:t.offset,y=a>g}a>0&&t.offset>=a&&!y?t._id=window.requestAnimationFrame(r):t.stop()}}))}},{key:"_start",value:function(){var t=this,n=arguments.length>0&&void 0!==arguments[0]?arguments[0]:0,e=-1/0,r=null,i={},u=function u(o){t._running=!0,null==r&&(r=o);var a=Math.round((o-r+n)*t.speed),l=t.fps?1e3/t.fps:0;if(a>e+l&&!t._rollingBack){t.offset=a,e=a;for(var f=t._animations,s=f.length,c=0,h=0;h<s;h++)i[h]?c++:(i[h]=f[h](a,t.direction),i[h]&&c++);if(c===s)return void t._stop()}t._id=window.requestAnimationFrame(u)};this._id=window.requestAnimationFrame(u)}},{key:"_stop",value:function(){this._id&&window.cancelAnimationFrame(this._id),this._running=!1,this._rollingBack=!1}},{key:"play",value:function(){!this._rollingBack&&this._running||(this._rollingBack=!1,this.rollbackStartOffset>this.duration&&(this.offset=this.rollbackStartOffset-(this.rollbackStartOffset-this.offset)%this.duration,this.rollbackStartOffset=0),this._start(this.offset))}},{key:"stop",value:function(){this._stop(),this.offset=0,this.rollbackStartOffset=0;var t=this.direction,n=this._animations;window.requestAnimationFrame((function(){for(var e=0;e<n.length;e++)n[e](0,t)}))}},{key:"reachedToEnd",value:function(){return this.iterations>0&&this.offset>=this.iterations*this.duration}},{key:"restart",value:function(){this._stop(),this.offset=0,this._start()}},{key:"pause",value:function(){this._stop()}},{key:"reverse",value:function(){this.direction=-this.direction}}],[{key:"build",value:function(n,e){return(n=L(n,e))?{el:n.element,options:n.options||{},player:new t(n.animations,n.animationSettings,n.options)}:null}}]),t}();!function(){for(var t=0,n=["ms","moz","webkit","o"],e=0;e<n.length&&!window.requestAnimationFrame;++e)window.requestAnimationFrame=window[n[e]+"RequestAnimationFrame"],window.cancelAnimationFrame=window[n[e]+"CancelAnimationFrame"]||window[n[e]+"CancelRequestAnimationFrame"];window.requestAnimationFrame||(window.requestAnimationFrame=function(n){var e=Date.now(),r=Math.max(0,16-(e-t)),i=window.setTimeout((function(){n(e+r)}),r);return t=e+r,i},window.cancelAnimationFrame=window.clearTimeout)}();var W=function(t,n){var e=!1,r=null;return function(i){e&&clearTimeout(e),e=setTimeout((function(){return function(){for(var i=0,u=window.innerHeight,o=0,a=window.innerWidth,l=t.parentNode;l instanceof Element;){var f=window.getComputedStyle(l);if("visible"!==f.overflowY||"visible"!==f.overflowX){var s=l.getBoundingClientRect();"visible"!==f.overflowY&&(i=Math.max(i,s.top),u=Math.min(u,s.bottom)),"visible"!==f.overflowX&&(o=Math.max(o,s.left),a=Math.min(a,s.right))}if(l===l.parentNode)break;l=l.parentNode}e=!1;var c=t.getBoundingClientRect(),h=Math.min(c.height,Math.max(0,i-c.top)),v=Math.min(c.height,Math.max(0,c.bottom-u)),d=Math.min(c.width,Math.max(0,o-c.left)),y=Math.min(c.width,Math.max(0,c.right-a)),g=(c.height-h-v)/c.height,p=(c.width-d-y)/c.width,m=Math.round(g*p*100);null!==r&&r===m||(r=m,n(m))}()}),100)}},Y=function(){function t(e,r,i){n(this,t),r=Math.max(1,r||1),r=Math.min(r,100),this.el=e,this.onTresholdChange=i&&i.call?i:function(){},this.tresholdPercent=r||1,this.currentVisibility=null,this.visibilityCalculator=W(e,this.onVisibilityUpdate.bind(this)),this.bindScrollWatchers(),this.visibilityCalculator()}return r(t,[{key:"bindScrollWatchers",value:function(){for(var t=this.el.parentNode;t&&(t.addEventListener("scroll",this.visibilityCalculator),t!==t.parentNode&&t!==document);)t=t.parentNode}},{key:"onVisibilityUpdate",value:function(t){var n=this.currentVisibility>=this.tresholdPercent,e=t>=this.tresholdPercent;if(null===this.currentVisibility||n!==e)return this.currentVisibility=t,void this.onTresholdChange(e);this.currentVisibility=t}}]),t}(),G=/\.0+$/g;function H(t){return Number.isInteger(t)?t+"":t.toFixed(6).replace(G,"")}function X(t){var n=arguments.length>1&&void 0!==arguments[1]?arguments[1]:" ";return t&&t.length?t.map(H).join(n):""}function $(t){return H(t.x)+","+H(t.y)}function Q(t){return t?null==t.a||t.a>=1?"rgb("+t.r+","+t.g+","+t.b+")":"rgba("+t.r+","+t.g+","+t.b+","+t.a+")":"transparent"}var Z={f:null,i:k,u:function(t,n){return function(e){var r=n(e);t.setAttribute("rx",H(r.x)),t.setAttribute("ry",H(r.y))}}},J={f:null,i:function(t,n,e){return 0===t?n:1===t?e:{width:w(t,n.width,e.width),height:w(t,n.height,e.height)}},u:function(t,n){return function(e){var r=n(e);t.setAttribute("width",H(r.width)),t.setAttribute("height",H(r.height))}}},K=Math.sin,tt=Math.cos,nt=Math.acos,et=Math.asin,rt=Math.tan,it=Math.atan2,ut=Math.PI/180,ot=180/Math.PI,at=Math.sqrt,lt=function(){function t(){var e=arguments.length>0&&void 0!==arguments[0]?arguments[0]:1,r=arguments.length>1&&void 0!==arguments[1]?arguments[1]:0,i=arguments.length>2&&void 0!==arguments[2]?arguments[2]:0,u=arguments.length>3&&void 0!==arguments[3]?arguments[3]:1,o=arguments.length>4&&void 0!==arguments[4]?arguments[4]:0,a=arguments.length>5&&void 0!==arguments[5]?arguments[5]:0;n(this,t),this.m=[e,r,i,u,o,a],this.i=null,this.w=null,this.s=null}return r(t,[{key:"point",value:function(t,n){var e=this.m;return{x:e[0]*t+e[2]*n+e[4],y:e[1]*t+e[3]*n+e[5]}}},{key:"translateSelf",value:function(){var t=arguments.length>0&&void 0!==arguments[0]?arguments[0]:0,n=arguments.length>1&&void 0!==arguments[1]?arguments[1]:0;if(!t&&!n)return this;var e=this.m;return e[4]+=e[0]*t+e[2]*n,e[5]+=e[1]*t+e[3]*n,this.w=this.s=this.i=null,this}},{key:"rotateSelf",value:function(){var t=arguments.length>0&&void 0!==arguments[0]?arguments[0]:0;if(t%=360){var n=K(t*=ut),e=tt(t),r=this.m,i=r[0],u=r[1];r[0]=i*e+r[2]*n,r[1]=u*e+r[3]*n,r[2]=r[2]*e-i*n,r[3]=r[3]*e-u*n,this.w=this.s=this.i=null}return this}},{key:"scaleSelf",value:function(){var t=arguments.length>0&&void 0!==arguments[0]?arguments[0]:1,n=arguments.length>1&&void 0!==arguments[1]?arguments[1]:1;if(1!==t||1!==n){var e=this.m;e[0]*=t,e[1]*=t,e[2]*=n,e[3]*=n,this.w=this.s=this.i=null}return this}},{key:"skewSelf",value:function(t,n){if(n%=360,(t%=360)||n){var e=this.m,r=e[0],i=e[1],u=e[2],o=e[3];t&&(t=rt(t*ut),e[2]+=r*t,e[3]+=i*t),n&&(n=rt(n*ut),e[0]+=u*n,e[1]+=o*n),this.w=this.s=this.i=null}return this}},{key:"resetSelf",value:function(){var t=arguments.length>0&&void 0!==arguments[0]?arguments[0]:1,n=arguments.length>1&&void 0!==arguments[1]?arguments[1]:0,e=arguments.length>2&&void 0!==arguments[2]?arguments[2]:0,r=arguments.length>3&&void 0!==arguments[3]?arguments[3]:1,i=arguments.length>4&&void 0!==arguments[4]?arguments[4]:0,u=arguments.length>5&&void 0!==arguments[5]?arguments[5]:0,o=this.m;return o[0]=t,o[1]=n,o[2]=e,o[3]=r,o[4]=i,o[5]=u,this.w=this.s=this.i=null,this}},{key:"recomposeSelf",value:function(){var t=arguments.length>0&&void 0!==arguments[0]?arguments[0]:null,n=arguments.length>1&&void 0!==arguments[1]?arguments[1]:null,e=arguments.length>2&&void 0!==arguments[2]?arguments[2]:null,r=arguments.length>3&&void 0!==arguments[3]?arguments[3]:null,i=arguments.length>4&&void 0!==arguments[4]?arguments[4]:null;return this.isIdentity||this.resetSelf(),t&&(t.x||t.y)&&this.translateSelf(t.x,t.y),n&&this.rotateSelf(n),e&&(e.x&&this.skewSelf(e.x,0),e.y&&this.skewSelf(0,e.y)),!r||1===r.x&&1===r.y||this.scaleSelf(r.x,r.y),i&&(i.x||i.y)&&this.translateSelf(i.x,i.y),this}},{key:"decompose",value:function(){var t=arguments.length>0&&void 0!==arguments[0]?arguments[0]:0,n=arguments.length>1&&void 0!==arguments[1]?arguments[1]:0,e=this.m,r=e[0]*e[0]+e[1]*e[1],i=[[e[0],e[1]],[e[2],e[3]]],u=at(r);if(0===u)return{origin:{x:e[4],y:e[5]},translate:{x:t,y:n},scale:{x:0,y:0},skew:{x:0,y:0},rotate:0};i[0][0]/=u,i[0][1]/=u;var o=e[0]*e[3]-e[1]*e[2]<0;o&&(u=-u);var a=i[0][0]*i[1][0]+i[0][1]*i[1][1];i[1][0]-=i[0][0]*a,i[1][1]-=i[0][1]*a;var l=at(i[1][0]*i[1][0]+i[1][1]*i[1][1]);if(0===l)return{origin:{x:e[4],y:e[5]},translate:{x:t,y:n},scale:{x:u,y:0},skew:{x:0,y:0},rotate:0};i[1][0]/=l,i[1][1]/=l,a/=l;var f=0;return i[1][1]<0?(f=nt(i[1][1])*ot,i[0][1]<0&&(f=360-f)):f=et(i[0][1])*ot,o&&(f=-f),a=it(a,at(i[0][0]*i[0][0]+i[0][1]*i[0][1]))*ot,{origin:{x:e[4],y:e[5]},translate:{x:t,y:n},scale:{x:u,y:l},skew:{x:a,y:0},rotate:f}}},{key:"toString",value:function(){return null===this.s&&(this.s="matrix("+this.m.map(st).join(" ")+")"),this.s}},{key:"determinant",get:function(){var t=this.m;return t[0]*t[3]-t[1]*t[2]}},{key:"isIdentity",get:function(){if(null===this.i){var t=this.m;this.i=1===t[0]&&0===t[1]&&0===t[2]&&1===t[3]&&0===t[4]&&0===t[5]}return this.i}}]),t}(),ft=/\.0+$/;function st(t){return Number.isInteger(t)?t:t.toFixed(14).replace(ft,"")}Object.freeze({M:2,L:2,Z:0,H:1,V:1,C:6,Q:4,T:2,S:4,A:7});function ct(t,n,e){return t+(n-t)*e}function ht(t,n,e){var r=arguments.length>3&&void 0!==arguments[3]&&arguments[3],i={x:ct(t.x,n.x,e),y:ct(t.y,n.y,e)};return r&&(i.a=vt(t,n)),i}function vt(t,n){return Math.atan2(n.y-t.y,n.x-t.x)}function dt(t,n,e,r){var i=1-r;return i*i*t+2*i*r*n+r*r*e}function yt(t,n,e,r){return 2*(1-r)*(n-t)+2*r*(e-n)}function gt(t,n,e,r){var i=arguments.length>4&&void 0!==arguments[4]&&arguments[4],u={x:dt(t.x,n.x,e.x,r),y:dt(t.y,n.y,e.y,r)};return i&&(u.a=pt(t,n,e,r)),u}function pt(t,n,e,r){return Math.atan2(yt(t.y,n.y,e.y,r),yt(t.x,n.x,e.x,r))}function mt(t,n,e,r,i){var u=i*i;return i*u*(r-t+3*(n-e))+3*u*(t+e-2*n)+3*i*(n-t)+t}function bt(t,n,e,r,i){var u=1-i;return 3*(u*u*(n-t)+2*u*i*(e-n)+i*i*(r-e))}function wt(t,n,e,r,i){var u=arguments.length>5&&void 0!==arguments[5]&&arguments[5],o={x:mt(t.x,n.x,e.x,r.x,i),y:mt(t.y,n.y,e.y,r.y,i)};return u&&(o.a=xt(t,n,e,r,i)),o}function xt(t,n,e,r,i){return Math.atan2(bt(t.y,n.y,e.y,r.y,i),bt(t.x,n.x,e.x,r.x,i))}function kt(t,n,e){var r=arguments.length>3&&void 0!==arguments[3]&&arguments[3];if(_t(n)){if(St(e))return gt(n,e.start,e,t,r)}else if(_t(e)){if(n.end)return gt(n,n.end,e,t,r)}else{if(n.end)return e.start?wt(n,n.end,e.start,e,t,r):gt(n,n.end,e,t,r);if(e.start)return gt(n,e.start,e,t,r)}return ht(n,e,t,r)}function At(t,n,e){var r=kt(t,n,e,!0);return r.a=function(t){var n=arguments.length>1&&void 0!==arguments[1]&&arguments[1];return n?t+Math.PI:t}(r.a)/p,r}function _t(t){return!t.type||"corner"===t.type}function St(t){return null!=t.start&&!_t(t)}var Mt=new lt;var Ot={f:function(t){return t?t.join(" "):""},i:function(n,e,r){if(0===n)return e;if(1===n)return r;var i=e.length;if(i!==r.length)return m(n,e,r);for(var u,o=new Array(i),a=0;a<i;a++){if((u=t(e[a]))!==t(r[a]))return m(n,e,r);if("number"===u)o[a]=b(n,e[a],r[a]);else{if(e[a]!==r[a])return m(n,e,r);o[a]=e[a]}}return o}},Et={f:null,i:M,u:function(t,n){return function(e){var r=n(e);t.setAttribute("x1",H(r[0])),t.setAttribute("y1",H(r[1])),t.setAttribute("x2",H(r[2])),t.setAttribute("y2",H(r[3]))}}},Bt={f:H,i:b},It={f:H,i:function(t,n,e){var r=b(t,n,e);return r<=0?0:r>=1?1:r}},jt={f:function(t){var n=arguments.length>1&&void 0!==arguments[1]?arguments[1]:" ";return t&&t.length>0&&(t=t.map((function(t){return Math.floor(1e4*t)/1e4}))),X(t,n)},i:function(t,n,e){var r,i,u,o=n.length,a=e.length;if(o!==a)if(0===o)n=O(o=a,0);else if(0===a)a=o,e=O(o,0);else{var l=(u=(r=o)*(i=a)/function(t,n){for(var e;n;)e=n,n=t%n,t=e;return t||1}(r,i))<0?-u:u;n=E(n,Math.floor(l/o)),e=E(e,Math.floor(l/a)),o=a=l}for(var f=[],s=0;s<o;s++)f.push(g(w(t,n[s],e[s]),6));return f}};function Pt(t,n,e,r,i,u,o,a){return n=function(t,n,e){for(var r,i,u,o=t.length-1,a={},l=0;l<=o;l++)(r=t[l]).e&&(r.e=n(r.e)),r.v&&"g"===(i=r.v).t&&i.r&&(u=e.getElementById(i.r))&&(a[i.r]=u.querySelectorAll("stop"));return a}(t,r,a),function(r){var i,u=e(r,t,Ft);return u?"c"===u.t?Q(u.v):"g"===u.t?(n[u.r]&&function(t,n){for(var e=0,r=t.length;e<r;e++)t[e].setAttribute("stop-color",Q(n[e]))}(n[u.r],u.v),(i=u.r)?"url(#"+i+")":"none"):"none":"none"}}function Ft(t,n,e){if(0===t)return n;if(1===t)return e;if(n&&e){var r=n.t;if(r===e.t)switch(n.t){case"c":return{t:r,v:_(t,n.v,e.v)};case"g":if(n.r===e.r)return{t:r,v:S(t,n.v,e.v),r:n.r}}}return m(t,n,e)}var Rt={blur:k,brightness:w,contrast:w,"drop-shadow":function(t,n,e){return 0===t?n:1===t?e:{blur:k(t,n.blur,e.blur),offset:x(t,n.offset,e.offset),color:_(t,n.color,e.color)}},grayscale:w,"hue-rotate":b,invert:w,opacity:w,saturate:w,sepia:w};function Tt(t,n,e){if(0===t)return n;if(1===t)return e;var r=n.length;if(r!==e.length)return m(t,n,e);for(var i,u=[],o=0;o<r;o++){if(n[o].type!==e[o].type)return n;if(!(i=Rt[n[o].type]))return m(t,n,e);u.push({type:n.type,value:i(t,n[o].value,e[o].value)})}return u}var qt={blur:function(t){return t?function(n){t.setAttribute("stdDeviation",$(n))}:null},brightness:function(t,n,e){return(t=Vt(e,n))?function(n){n=H(n),t.map((function(t){return t.setAttribute("slope",n)}))}:null},contrast:function(t,n,e){return(t=Vt(e,n))?function(n){var e=H((1-n)/2);n=H(n),t.map((function(t){t.setAttribute("slope",n),t.setAttribute("intercept",e)}))}:null},"drop-shadow":function(t,n,e){var r=e.getElementById(n+"-blur");if(!r)return null;var i=e.getElementById(n+"-offset");if(!i)return null;var u=e.getElementById(n+"-flood");return u?function(t){r.setAttribute("stdDeviation",$(t.blur)),i.setAttribute("dx",H(t.offset.x)),i.setAttribute("dy",H(t.offset.y)),u.setAttribute("flood-color",Q(t.color))}:null},grayscale:function(t){return t?function(n){t.setAttribute("values",X(function(t){return[.2126+.7874*(t=1-t),.7152-.7152*t,.0722-.0722*t,0,0,.2126-.2126*t,.7152+.2848*t,.0722-.0722*t,0,0,.2126-.2126*t,.7152-.7152*t,.0722+.9278*t,0,0,0,0,0,1,0]}(n)))}:null},"hue-rotate":function(t){return t?function(n){return t.setAttribute("values",H(n))}:null},invert:function(t,n,e){return(t=Vt(e,n))?function(n){n=H(n)+" "+H(1-n),t.map((function(t){return t.setAttribute("tableValues",n)}))}:null},opacity:function(t,n,e){return(t=e.getElementById(n+"-A"))?function(n){return t.setAttribute("tableValues","0 "+H(n))}:null},saturate:function(t){return t?function(n){return t.setAttribute("values",H(n))}:null},sepia:function(t){return t?function(n){return t.setAttribute("values",X(function(t){return[.393+.607*(t=1-t),.769-.769*t,.189-.189*t,0,0,.349-.349*t,.686+.314*t,.168-.168*t,0,0,.272-.272*t,.534-.534*t,.131+.869*t,0,0,0,0,0,1,0]}(n)))}:null}};var Ct=["R","G","B"];function Vt(t,n){var e=Ct.map((function(e){return t.getElementById(n+"-"+e)||null}));return-1!==e.indexOf(null)?null:e}var Nt={fill:Pt,"fill-opacity":It,stroke:Pt,"stroke-opacity":It,"stroke-width":Bt,"stroke-dashoffset":{f:H,i:b},"stroke-dasharray":jt,opacity:It,transform:function(n,e,r,i){if(!(n=function(n,e){if(!n||"object"!==t(n))return null;var r=!1;for(var i in n)n.hasOwnProperty(i)&&(n[i]&&n[i].length?(n[i].forEach((function(t){t.e&&(t.e=e(t.e))})),r=!0):delete n[i]);return r?n:null}(n,i)))return null;var u=function(t,i,u){var o=arguments.length>3&&void 0!==arguments[3]?arguments[3]:null;return n[t]?r(i,n[t],u):e&&e[t]?e[t]:o};return e&&e.a&&n.o?function(t){var e=r(t,n.o,At);return Mt.recomposeSelf(e,u("r",t,b,0)+e.a,u("k",t,x),u("s",t,x),u("t",t,x)).toString()}:function(t){return Mt.recomposeSelf(u("o",t,kt,null),u("r",t,b,0),u("k",t,x),u("s",t,x),u("t",t,x)).toString()}},"#filter":function(t,n,e,r,i,u,o,a){if(!n.items||!t||!t.length)return null;var l=function(t,n){var e=(t=t.map((function(t){return t&&qt[t[0]]?(n.getElementById(t[1]),qt[t[0]](n.getElementById(t[1]),t[1],n)):null}))).length;return function(n){for(var r=0;r<e;r++)t[r]&&t[r](n[r].value)}}(n.items,a);return l?(t=function(t,n){return t.map((function(t){return t.e=n(t.e),t}))}(t,r),function(n){l(e(n,t,Tt))}):null},"#line":Et,points:{f:X,i:M},d:Ot,r:Bt,"#size":J,"#radius":Z,_:function(t,n){if(Array.isArray(t))for(var e=0;e<t.length;e++)this[t[e]]=n;else this[t]=n}};return function(t){!function(t,n){if("function"!=typeof n&&null!==n)throw new TypeError("Super expression must either be null or a function");t.prototype=Object.create(n&&n.prototype,{constructor:{value:t,writable:!0,configurable:!0}}),n&&u(t,n)}(o,t);var e=a(o);function o(){return n(this,o),e.apply(this,arguments)}return r(o,null,[{key:"build",value:function(t){var n=l(i(o),"build",this).call(this,t,Nt),e=n.el,r=n.options,u=n.player;return function(t,n,e){if("click"===e.start){return void n.addEventListener("click",(function(){switch(e.click){case"freeze":return!t._running&&t.reachedToEnd()&&(t.offset=0),t._running?t.pause():t.play();case"restart":return t.offset>0?t.restart():t.play();case"reverse":var n=!t._rollingBack&&t._running,r=t.reachedToEnd();return n||r&&1===t.fill?(t.pause(),r&&(t.offset=t.duration-1),t._rollback()):r?t.restart():t.play();case"none":default:return!t._running&&t.offset?t.restart():t.play()}}))}if("hover"===e.start)return n.addEventListener("mouseenter",(function(){return t.reachedToEnd()?t.restart():t.play()})),void n.addEventListener("mouseleave",(function(){switch(e.hover){case"freeze":return t.pause();case"reset":return t.stop();case"reverse":return t.pause(),t._rollback();case"none":default:return}}));if("scroll"===e.start)return void new Y(n,e.scroll||25,(function(n){n?t.reachedToEnd()?t.restart():t.play():t.pause()}));t.play()}(u,e,r),u}}]),o}(U)}));
__SVGATOR_PLAYER__.build({"root":"er9qng0lzzng1","animations":[{"duration":10000,"direction":1,"iterations":0,"fill":1,"alternate":false,"elements":{"er9qng0lzzng6":{"transform":{"data":{"o":{"x":32.557963,"y":142.36905113,"type":"corner"},"t":{"x":-42.30564337999999,"y":-61.716521450000016}},"keys":{"s":[{"t":0,"v":{"x":0.9996706968482378,"y":0.9996706968482378}},{"t":500,"v":{"x":1,"y":1}},{"t":1000,"v":{"x":1.2,"y":1.2}},{"t":1400,"v":{"x":1,"y":1}}]}}},"er9qng0lzzng7":{"transform":{"data":{"o":{"x":98.51800053,"y":187.00223976,"type":"corner"},"t":{"x":-54.33453302000073,"y":-59.9838229099999}},"keys":{"s":[{"t":2900,"v":{"x":0.9996706968482378,"y":0.9996706968482378}},{"t":3400,"v":{"x":1,"y":1}},{"t":3900,"v":{"x":1.2,"y":1.2}},{"t":4300,"v":{"x":1,"y":1}}]}}},"er9qng0lzzng8":{"transform":{"data":{"o":{"x":136.80953589,"y":40.67755381,"type":"corner"},"t":{"x":-55.793717072323844,"y":-62.13209527721218}},"keys":{"s":[{"t":6000,"v":{"x":0.9996706968482378,"y":0.9996706968482378}},{"t":6500,"v":{"x":1,"y":1}},{"t":7000,"v":{"x":1.2,"y":1.2}},{"t":7400,"v":{"x":1,"y":1}}]}}},"er9qng0lzzng10":{"transform":{"data":{"o":{"x":55.46985125,"y":159.79348189999988,"type":"corner"},"s":{"x":0.11475487431137761,"y":0.13234878870937847},"t":{"x":-23.000000000002302,"y":-23.00000000000211}},"keys":{"r":[{"t":0,"v":30},{"t":10000,"v":390}]}}},"er9qng0lzzng11":{"transform":{"data":{"o":{"x":156.05860940000002,"y":72.29759319,"type":"corner"},"s":{"x":0.12539556354636497,"y":0.12539556354636497},"t":{"x":-50,"y":-50.001188889999995}},"keys":{"r":[{"t":0,"v":-30},{"t":10000,"v":330}]}}},"er9qng0lzzng12":{"transform":{"data":{"o":{"x":36.26430069,"y":45.51530895000002,"type":"corner"},"s":{"x":0.12539556354636497,"y":0.12539556354636497},"t":{"x":-50,"y":-50.001188889999995}},"keys":{"r":[{"t":0,"v":0},{"t":10000,"v":386.739240689746}]}}},"er9qng0lzzng13":{"transform":{"data":{"o":{"x":199.57050935000015,"y":183.04635820000007,"type":"corner"},"s":{"x":0.11475487431137761,"y":0.13234878870937847},"t":{"x":-23.000000000002302,"y":-23.00000000000211}},"keys":{"r":[{"t":0,"v":-32.51031850627926},{"t":10000,"v":390}]}}}}}],"options":{"start":"load","hover":"freeze","click":"freeze","scroll":25,"exportedIds":"unique","title":"Biteye_Czarny - sygnet"},"animationSettings":{"duration":10000,"direction":1,"iterations":0,"fill":1,"alternate":false}})]]></script></svg>