<svg id="Warstwa_1" data-name="Warstwa 1" xmlns="http://www.w3.org/2000/svg" viewBox="0 0 226.77 226.77"><defs><style>.cls-1{fill:#101820;}</style></defs><path class="cls-1" d="M182.18,113.37a71.24,71.24,0,0,0,2.65-13.13,4.43,4.43,0,0,0,0-.52V74.58a5,5,0,0,0-2.49-4.33L115.89,31.88a5,5,0,0,0-5,0L44.43,70.25a5,5,0,0,0-2.5,4.33V99.72a4.41,4.41,0,0,0,0,.52,71.62,71.62,0,0,0,2.65,13.15A71.34,71.34,0,0,0,42,126.53a4.41,4.41,0,0,0,0,.52v25.14a5,5,0,0,0,2.5,4.33l66.46,38.37a5.09,5.09,0,0,0,2.5.67,5,5,0,0,0,2.5-.67l66.46-38.37a5,5,0,0,0,2.5-4.33V127.05a4.43,4.43,0,0,0,0-.52,71.24,71.24,0,0,0-2.65-13.13h0ZM51.93,77.47,113.39,42l61.45,35.47V97a72.39,72.39,0,0,0-18.23-20.22,71.88,71.88,0,0,0-86.45,0A72.62,72.62,0,0,0,51.93,97ZM112,138a4.62,4.62,0,0,0,1-.1h.33a24.56,24.56,0,0,0,24.53-24.52,24.21,24.21,0,0,0-2.09-9.89,48.05,48.05,0,0,1,24.94,27.85,6.11,6.11,0,0,0,.32.74s0,0,0,0A61.93,61.93,0,0,1,55.13,113.39a59.85,59.85,0,0,1,4.1-9.07A58.29,58.29,0,0,0,112,138ZM98.74,113.34a14.53,14.53,0,1,1,14.53,14.52A14.55,14.55,0,0,1,98.74,113.34Zm69,8.83a58.11,58.11,0,0,0-52.59-33.36,4.36,4.36,0,0,0-.51,0h0c-.43,0-.87,0-1.31,0A24.53,24.53,0,0,0,90.72,123,48.18,48.18,0,0,1,66.66,96.14a4.65,4.65,0,0,0-.82-1.44,61.93,61.93,0,0,1,105.82,18.69A59.85,59.85,0,0,1,167.71,122.17Zm7.14,27.13-61.46,35.48L51.94,149.31h0V129.78A72.62,72.62,0,0,0,70.17,150a71.88,71.88,0,0,0,86.45,0,72.39,72.39,0,0,0,18.23-20.22Z"/></svg>