<svg id="Warstwa_1" data-name="Warstwa 1" xmlns="http://www.w3.org/2000/svg" viewBox="0 0 736 286.1"><defs><style>.cls-1{fill:#101820;}</style></defs><path class="cls-1" d="M522.31,167.71a4.84,4.84,0,0,1,1.52,3.52,4.64,4.64,0,0,1-1.52,3.57,5.41,5.41,0,0,1-3.79,1.39H489.38a5.19,5.19,0,0,1-5.31-5.31V120.6a5.19,5.19,0,0,1,5.31-5.31h29.14a5.31,5.31,0,0,1,3.79,1.44,4.86,4.86,0,0,1,1.52,3.69,4.51,4.51,0,0,1-1.52,3.53,5.52,5.52,0,0,1-3.79,1.35H495v14.79h19.66a5.28,5.28,0,0,1,3.78,1.43,4.84,4.84,0,0,1,1.52,3.7,4.46,4.46,0,0,1-1.52,3.52,5.49,5.49,0,0,1-3.78,1.35H495v16.1h23.57A5.13,5.13,0,0,1,522.31,167.71Z"/><path class="cls-1" d="M604,120.42a6.5,6.5,0,0,1-.22,1.61,5.31,5.31,0,0,1-.74,1.61l-18.18,26v21.21a5.14,5.14,0,0,1-1.53,3.79,4.84,4.84,0,0,1-3.52,1.52,5.06,5.06,0,0,1-3.7-1.52,5.17,5.17,0,0,1-1.52-3.79V148.47l-18.1-24a7.5,7.5,0,0,1-1.21-2.18,5.83,5.83,0,0,1-.35-1.91,4.72,4.72,0,0,1,1.82-3.83,5.9,5.9,0,0,1,3.75-1.48,5.26,5.26,0,0,1,4.26,2.44l15.33,21.15,14.33-21a5.27,5.27,0,0,1,4.36-2.61,5.35,5.35,0,0,1,5.22,5.39Z"/><path class="cls-1" d="M676.12,167.71a4.81,4.81,0,0,1,1.52,3.52,4.61,4.61,0,0,1-1.52,3.57,5.38,5.38,0,0,1-3.78,1.39H643.19a5.19,5.19,0,0,1-5.3-5.31V120.6a5.19,5.19,0,0,1,5.3-5.31h29.15a5.29,5.29,0,0,1,3.78,1.44,4.82,4.82,0,0,1,1.52,3.69,4.48,4.48,0,0,1-1.52,3.53,5.49,5.49,0,0,1-3.78,1.35H648.76v14.79h19.66a5.3,5.3,0,0,1,3.79,1.43,4.88,4.88,0,0,1,1.52,3.7,4.49,4.49,0,0,1-1.52,3.52,5.52,5.52,0,0,1-3.79,1.35H648.76v16.1h23.58A5.11,5.11,0,0,1,676.12,167.71Z"/><path class="cls-1" d="M315.66,152a14.58,14.58,0,0,0-4-5,16.12,16.12,0,0,0-5.56-2.92l-.8-.22a12.58,12.58,0,0,0,2.45-1.26,13,13,0,0,0,4.65-5.3,15.91,15.91,0,0,0,1.57-7q0-7-4.13-11t-11.44-4H275.38a2.47,2.47,0,0,0-1.87.78,2.6,2.6,0,0,0-.74,1.83v55.68a2.59,2.59,0,0,0,.74,1.83,2.47,2.47,0,0,0,1.87.78h23.4a25.14,25.14,0,0,0,6.83-.91,16.68,16.68,0,0,0,5.87-3,14.19,14.19,0,0,0,4.14-5.31,18.33,18.33,0,0,0,1.52-7.78A16.28,16.28,0,0,0,315.66,152Zm-37.32-31.45h19.31c3.42,0,6.08.91,8,2.74a9.87,9.87,0,0,1,2.83,7.44q0,5.66-3.09,8.53a11.07,11.07,0,0,1-7.61,2.95h-19.4Zm29.49,47.72a15.1,15.1,0,0,1-9.39,2.83h-20.1V147.48h20a19.11,19.11,0,0,1,6.52,1.09,9.84,9.84,0,0,1,4.88,3.7,12,12,0,0,1,1.82,7Q311.57,165.41,307.83,168.23Z"/><path class="cls-1" d="M361,173.5a2.81,2.81,0,0,1-.91,1.91,2.64,2.64,0,0,1-1.87.78,2.53,2.53,0,0,1-2-.78,2.75,2.75,0,0,1-.7-1.91V118a2.57,2.57,0,0,1,.79-1.91,2.76,2.76,0,0,1,3.87,0A2.53,2.53,0,0,1,361,118Z"/><path class="cls-1" d="M444.77,117.81a2.19,2.19,0,0,1-.79,1.79,2.91,2.91,0,0,1-1.91.65H424.15v53.33a2.51,2.51,0,0,1-.78,1.83,2.63,2.63,0,0,1-1.92.78,2.71,2.71,0,0,1-2-.78,2.51,2.51,0,0,1-.78-1.83V120.25H400.75a2.64,2.64,0,0,1-1.83-.7,2.22,2.22,0,0,1-.78-1.74,2.32,2.32,0,0,1,.78-1.82,2.64,2.64,0,0,1,1.83-.7h41.32a2.75,2.75,0,0,1,1.91.7A2.29,2.29,0,0,1,444.77,117.81Z"/><path class="cls-1" d="M211.4,145.6A70.4,70.4,0,0,0,214,132.47a4.41,4.41,0,0,0,0-.52V106.81a5,5,0,0,0-2.5-4.33L145.11,64.11a5,5,0,0,0-5,0L73.65,102.48a5,5,0,0,0-2.5,4.33V132a4.41,4.41,0,0,0,0,.52,70.61,70.61,0,0,0,2.64,13.15h0a70.4,70.4,0,0,0-2.64,13.13,4.41,4.41,0,0,0,0,.52v25.14a5,5,0,0,0,2.5,4.33l66.46,38.37a5,5,0,0,0,5,0l66.46-38.37a5,5,0,0,0,2.5-4.33V159.28a4.41,4.41,0,0,0,0-.52,70.4,70.4,0,0,0-2.64-13.13h0ZM81.15,109.7l61.46-35.48,61.45,35.47v19.53A72.62,72.62,0,0,0,185.83,109a71.88,71.88,0,0,0-86.45,0,72.39,72.39,0,0,0-18.23,20.22Zm60,60.48a4.62,4.62,0,0,0,1-.1h.33a24.52,24.52,0,0,0,22.44-34.42,48,48,0,0,1,24.94,27.86,4.46,4.46,0,0,0,.32.74h0A61.92,61.92,0,0,1,84.35,145.62a59.85,59.85,0,0,1,4.1-9.07A58.26,58.26,0,0,0,141.16,170.18ZM128,145.57a14.53,14.53,0,1,1,14.53,14.52A14.55,14.55,0,0,1,128,145.57ZM144.34,121a4.36,4.36,0,0,0-.51,0h0q-.66,0-1.32,0a24.53,24.53,0,0,0-22.55,34.18,48.13,48.13,0,0,1-24.05-26.85,5.09,5.09,0,0,0-.82-1.44,61.91,61.91,0,0,1,105.81,18.69,60.76,60.76,0,0,1-3.94,8.77A58.14,58.14,0,0,0,144.34,121Zm59.73,60.49L142.61,217,81.16,181.54h0V162a72.43,72.43,0,0,0,18.24,20.22,71.88,71.88,0,0,0,86.45,0A72.54,72.54,0,0,0,204.07,162Z"/></svg>